<svg width="203" height="196" viewBox="0 0 203 196" fill="none" xmlns="http://www.w3.org/2000/svg">
<path d="M202.624 98.4477C201.453 68.6657 189.534 41.6607 170.62 21.1855L93.3581 98.4477H202.624Z" fill="#FC7900"/>
<path d="M84.9946 97.287L154.931 27.3502C136.558 10.3727 112 0 84.9946 0C58.0046 0 33.4464 10.3877 15.0578 27.3502L84.9946 97.287Z" fill="#343C6A"/>
<path d="M88.088 105.404V195.501C136.979 193.58 176.263 154.295 178.185 105.404H88.088Z" fill="#1814F3"/>
<path d="M81.6904 103.8L22.5767 44.686C8.57134 59.8473 0 80.1123 0 102.389C0 148.233 36.2668 185.595 81.6754 187.382V103.8H81.6904Z" fill="#FA00FF"/>
<path d="M74.5038 30.0078C76.6937 30.0078 78.2599 28.8034 78.2551 27.1372C78.2599 25.9232 77.4887 25.0568 76.0557 24.8759V24.7997C77.1459 24.6046 77.8981 23.8333 77.8933 22.7384C77.8981 21.2007 76.5508 19.9916 74.5324 19.9916C72.5329 19.9916 71.0286 21.1627 71 22.8479H72.9756C72.9994 22.1053 73.6802 21.6244 74.5228 21.6244C75.3559 21.6244 75.9129 22.1291 75.9082 22.8622C75.9129 23.6286 75.2607 24.1475 74.3229 24.1475H73.4136V25.6614H74.3229C75.4273 25.6614 76.1176 26.2136 76.1129 26.9991C76.1176 27.7751 75.4511 28.3083 74.5086 28.3083C73.5993 28.3083 72.9185 27.8322 72.8804 27.1181H70.8048C70.8381 28.8224 72.3615 30.0078 74.5038 30.0078ZM83.5596 30.0887C86.0113 30.0887 87.4918 28.2226 87.4966 25.0092C87.5014 21.8196 86.0018 19.9916 83.5596 19.9916C81.1127 19.9916 79.6274 21.8149 79.6226 25.0092C79.6131 28.2131 81.1031 30.084 83.5596 30.0887ZM83.5596 28.3797C82.4409 28.3797 81.7173 27.2562 81.722 25.0092C81.7268 22.7955 82.4456 21.6816 83.5596 21.6816C84.6688 21.6816 85.3924 22.7955 85.3924 25.0092C85.3972 27.2562 84.6736 28.3797 83.5596 28.3797ZM94.303 28.0465C94.3078 29.2176 95.0552 30.2125 96.45 30.2125C97.8306 30.2125 98.6018 29.2176 98.5971 28.0465V27.5323C98.6018 26.3517 97.8497 25.3662 96.45 25.3662C95.0742 25.3662 94.3078 26.3612 94.303 27.5323V28.0465ZM89.2997 22.4671C89.3044 23.6382 90.0518 24.6236 91.4419 24.6236C92.8272 24.6236 93.5985 23.6477 93.5937 22.4671V21.9529C93.5985 20.7723 92.8463 19.7868 91.4419 19.7868C90.0804 19.7868 89.3044 20.7723 89.2997 21.9529V22.4671ZM89.7662 29.8745H91.0087L97.7116 20.1249H96.4691L89.7662 29.8745ZM95.6884 27.5323C95.6931 27.0658 95.8788 26.585 96.45 26.585C97.0499 26.585 97.207 27.0658 97.2022 27.5323V28.0465C97.207 28.513 97.0308 28.9843 96.45 28.9843C95.8693 28.9843 95.6931 28.4987 95.6884 28.0465V27.5323ZM90.6945 21.9529C90.6993 21.5007 90.8754 21.0056 91.4419 21.0056C92.0418 21.0056 92.2036 21.4864 92.1989 21.9529V22.4671C92.2036 22.9336 92.0227 23.4049 91.4419 23.4049C90.8802 23.4049 90.6993 22.9336 90.6945 22.4671V21.9529ZM46.3128 44.8745H51.8034V43.4582H48.0306V41.5183H51.5058V40.102H48.0306V38.1661H51.7875V36.7498H46.3128V44.8745ZM54.8115 41.3517C54.8154 40.5662 55.2836 40.106 55.9659 40.106C56.6443 40.106 57.0529 40.5503 57.0489 41.2961V44.8745H58.7389V40.9946C58.7389 39.5744 57.9058 38.7016 56.6364 38.7016C55.7318 38.7016 55.0773 39.146 54.8035 39.8561H54.7321V38.781H53.1215V44.8745H54.8115V41.3517ZM63.3121 38.781H62.1656V37.3211H60.4756V38.781H59.6425V40.0505H60.4756V43.2242C60.4676 44.4183 61.2809 45.0094 62.5067 44.9578C62.9431 44.942 63.2526 44.8547 63.4232 44.7991L63.1574 43.5416C63.074 43.5574 62.8955 43.5971 62.7368 43.5971C62.3996 43.5971 62.1656 43.4701 62.1656 43.002V40.0505H63.3121V38.781ZM67.1245 44.9935C68.632 44.9935 69.6476 44.2596 69.8856 43.129L68.3226 43.0258C68.152 43.49 67.7156 43.732 67.1523 43.732C66.3073 43.732 65.7717 43.1726 65.7717 42.2641V42.2602H69.9213V41.796C69.9213 39.7252 68.6677 38.7016 67.0571 38.7016C65.2639 38.7016 64.1015 39.9751 64.1015 41.8555C64.1015 43.7875 65.248 44.9935 67.1245 44.9935ZM65.7717 41.2128C65.8074 40.5186 66.335 39.9632 67.0848 39.9632C67.8188 39.9632 68.3265 40.4868 68.3305 41.2128H65.7717ZM71.0242 44.8745H72.7142V41.4271C72.7142 40.6773 73.2617 40.1615 74.0075 40.1615C74.2416 40.1615 74.5629 40.2012 74.7216 40.2528V38.7532C74.5708 38.7175 74.3606 38.6937 74.19 38.6937C73.5076 38.6937 72.9483 39.0904 72.7261 39.8442H72.6626V38.781H71.0242V44.8745ZM79.142 38.781H77.9955V37.3211H76.3055V38.781H75.4724V40.0505H76.3055V43.2242C76.2975 44.4183 77.1108 45.0094 78.3367 44.9578C78.773 44.942 79.0825 44.8547 79.2531 44.7991L78.9873 43.5416C78.904 43.5574 78.7254 43.5971 78.5667 43.5971C78.2295 43.5971 77.9955 43.4701 77.9955 43.002V40.0505H79.142V38.781ZM81.9805 44.9896C82.881 44.9896 83.4642 44.5968 83.7617 44.0295H83.8093V44.8745H85.4121V40.7645C85.4121 39.3126 84.1822 38.7016 82.8255 38.7016C81.3656 38.7016 80.4055 39.3998 80.1715 40.5107L81.7345 40.6376C81.8496 40.2329 82.2106 39.9354 82.8175 39.9354C83.3928 39.9354 83.7221 40.225 83.7221 40.7249V40.7487C83.7221 41.1414 83.3055 41.193 82.2463 41.2961C81.0403 41.4072 79.9572 41.8119 79.9572 43.1726C79.9572 44.3786 80.8181 44.9896 81.9805 44.9896ZM82.4645 43.8232C81.9448 43.8232 81.5719 43.5812 81.5719 43.1171C81.5719 42.641 81.9646 42.4069 82.5597 42.3236C82.9286 42.2721 83.5316 42.1848 83.734 42.0499V42.6965C83.734 43.3353 83.2063 43.8232 82.4645 43.8232ZM86.7232 44.8745H88.4132V38.781H86.7232V44.8745ZM87.5722 37.9955C88.076 37.9955 88.4886 37.6107 88.4886 37.1386C88.4886 36.6705 88.076 36.2856 87.5722 36.2856C87.0723 36.2856 86.6597 36.6705 86.6597 37.1386C86.6597 37.6107 87.0723 37.9955 87.5722 37.9955ZM91.457 41.3517C91.461 40.5662 91.9291 40.106 92.6114 40.106C93.2898 40.106 93.6984 40.5503 93.6945 41.2961V44.8745H95.3845V40.9946C95.3845 39.5744 94.5514 38.7016 93.2819 38.7016C92.3774 38.7016 91.7228 39.146 91.4491 39.8561H91.3777V38.781H89.767V44.8745H91.457V41.3517ZM96.7164 44.8745H98.4064V41.2168C98.4064 40.5424 98.8349 40.0941 99.3982 40.0941C99.9536 40.0941 100.327 40.4749 100.327 41.074V44.8745H101.965V41.1533C101.965 40.5226 102.326 40.0941 102.941 40.0941C103.48 40.0941 103.885 40.4313 103.885 41.1097V44.8745H105.571V40.7764C105.571 39.4554 104.786 38.7016 103.651 38.7016C102.758 38.7016 102.064 39.1579 101.814 39.8561H101.751C101.556 39.1499 100.934 38.7016 100.096 38.7016C99.2752 38.7016 98.6524 39.138 98.3985 39.8561H98.3271V38.781H96.7164V44.8745ZM109.683 44.9935C111.191 44.9935 112.206 44.2596 112.444 43.129L110.881 43.0258C110.711 43.49 110.274 43.732 109.711 43.732C108.866 43.732 108.33 43.1726 108.33 42.2641V42.2602H112.48V41.796C112.48 39.7252 111.226 38.7016 109.616 38.7016C107.822 38.7016 106.66 39.9751 106.66 41.8555C106.66 43.7875 107.807 44.9935 109.683 44.9935ZM108.33 41.2128C108.366 40.5186 108.894 39.9632 109.643 39.9632C110.377 39.9632 110.885 40.4868 110.889 41.2128H108.33ZM115.273 41.3517C115.277 40.5662 115.745 40.106 116.427 40.106C117.106 40.106 117.514 40.5503 117.51 41.2961V44.8745H119.2V40.9946C119.2 39.5744 118.367 38.7016 117.098 38.7016C116.193 38.7016 115.539 39.146 115.265 39.8561H115.193V38.781H113.583V44.8745H115.273V41.3517ZM123.773 38.781H122.627V37.3211H120.937V38.781H120.104V40.0505H120.937V43.2242C120.929 44.4183 121.742 45.0094 122.968 44.9578C123.404 44.942 123.714 44.8547 123.884 44.7991L123.619 43.5416C123.535 43.5574 123.357 43.5971 123.198 43.5971C122.861 43.5971 122.627 43.4701 122.627 43.002V40.0505H123.773V38.781Z" fill="white"/>
<path d="M27.5276 113.661H34.4781V111.975H30.384V111.909L31.8074 110.514C33.8116 108.686 34.3495 107.772 34.3495 106.663C34.3495 104.973 32.969 103.778 30.8791 103.778C28.832 103.778 27.4277 105.001 27.4324 106.915H29.389C29.3843 105.982 29.9746 105.411 30.8648 105.411C31.7217 105.411 32.3596 105.944 32.3596 106.801C32.3596 107.577 31.8836 108.11 30.9981 108.962L27.5276 112.175V113.661ZM39.7945 113.875C42.2461 113.875 43.7267 112.009 43.7314 108.795C43.7362 105.606 42.2366 103.778 39.7945 103.778C37.3475 103.778 35.8622 105.601 35.8575 108.795C35.8479 111.999 37.338 113.87 39.7945 113.875ZM39.7945 112.166C38.6757 112.166 37.9521 111.042 37.9569 108.795C37.9616 106.582 38.6805 105.468 39.7945 105.468C40.9037 105.468 41.6273 106.582 41.6273 108.795C41.632 111.042 40.9084 112.166 39.7945 112.166ZM50.5379 111.833C50.5426 113.004 51.2901 113.999 52.6849 113.999C54.0655 113.999 54.8367 113.004 54.8319 111.833V111.318C54.8367 110.138 54.0845 109.152 52.6849 109.152C51.3091 109.152 50.5426 110.147 50.5379 111.318V111.833ZM45.5345 106.253C45.5393 107.424 46.2867 108.41 47.6768 108.41C49.0621 108.41 49.8333 107.434 49.8286 106.253V105.739C49.8333 104.558 49.0811 103.573 47.6768 103.573C46.3153 103.573 45.5393 104.558 45.5345 105.739V106.253ZM46.0011 113.661H47.2436L53.9465 103.911H52.7039L46.0011 113.661ZM51.9232 111.318C51.928 110.852 52.1136 110.371 52.6849 110.371C53.2847 110.371 53.4418 110.852 53.4371 111.318V111.833C53.4418 112.299 53.2657 112.77 52.6849 112.77C52.1041 112.77 51.928 112.285 51.9232 111.833V111.318ZM46.9294 105.739C46.9341 105.287 47.1103 104.792 47.6768 104.792C48.2766 104.792 48.4385 105.273 48.4337 105.739V106.253C48.4385 106.72 48.2576 107.191 47.6768 107.191C47.115 107.191 46.9341 106.72 46.9294 106.253V105.739ZM12.9332 120.536H11.2154V128.661H12.9332V120.536ZM16.0048 125.138C16.0087 124.352 16.4769 123.892 17.1592 123.892C17.8376 123.892 18.2462 124.336 18.2422 125.082V128.661H19.9322V124.781C19.9322 123.361 19.0991 122.488 17.8296 122.488C16.9251 122.488 16.2706 122.932 15.9968 123.642H15.9254V122.567H14.3148V128.661H16.0048V125.138ZM26.727 122.567H24.9378L23.6762 126.927H23.6128L22.3472 122.567H20.562L22.6924 128.661H24.5966L26.727 122.567ZM30.1615 128.78C31.669 128.78 32.6846 128.046 32.9227 126.915L31.3596 126.812C31.189 127.276 30.7526 127.518 30.1893 127.518C29.3443 127.518 28.8087 126.959 28.8087 126.05V126.046H32.9584V125.582C32.9584 123.511 31.7047 122.488 30.0941 122.488C28.3009 122.488 27.1386 123.761 27.1386 125.642C27.1386 127.574 28.2851 128.78 30.1615 128.78ZM28.8087 124.999C28.8444 124.305 29.3721 123.749 30.1219 123.749C30.8558 123.749 31.3636 124.273 31.3675 124.999H28.8087ZM39.1312 124.305C38.9805 123.182 38.076 122.488 36.5367 122.488C34.9776 122.488 33.9502 123.21 33.9541 124.384C33.9502 125.297 34.5254 125.888 35.7155 126.126L36.7708 126.336C37.3024 126.443 37.5444 126.637 37.5523 126.943C37.5444 127.304 37.1516 127.562 36.5605 127.562C35.9575 127.562 35.5568 127.304 35.4537 126.808L33.7915 126.895C33.9502 128.062 34.9419 128.78 36.5566 128.78C38.1355 128.78 39.2661 127.974 39.2701 126.772C39.2661 125.892 38.6909 125.364 37.5087 125.122L36.4058 124.9C35.8385 124.777 35.6283 124.582 35.6322 124.289C35.6283 123.924 36.0408 123.686 36.5645 123.686C37.1516 123.686 37.5007 124.007 37.5841 124.4L39.1312 124.305ZM43.5754 122.567H42.4289V121.107H40.7389V122.567H39.9058V123.837H40.7389V127.01C40.731 128.204 41.5443 128.796 42.7701 128.744C43.2065 128.728 43.5159 128.641 43.6865 128.585L43.4207 127.328C43.3374 127.344 43.1589 127.383 43.0002 127.383C42.663 127.383 42.4289 127.256 42.4289 126.788V123.837H43.5754V122.567ZM44.6763 128.661H46.3663V125.003C46.3663 124.329 46.7948 123.88 47.3581 123.88C47.9135 123.88 48.2864 124.261 48.2864 124.86V128.661H49.9249V124.939C49.9249 124.309 50.2859 123.88 50.9008 123.88C51.4403 123.88 51.845 124.217 51.845 124.896V128.661H53.531V124.563C53.531 123.242 52.7455 122.488 51.6109 122.488C50.7183 122.488 50.024 122.944 49.7741 123.642H49.7106C49.5162 122.936 48.8934 122.488 48.0563 122.488C47.2351 122.488 46.6123 122.924 46.3584 123.642H46.287V122.567H44.6763V128.661ZM57.6429 128.78C59.1505 128.78 60.1661 128.046 60.4041 126.915L58.841 126.812C58.6704 127.276 58.2341 127.518 57.6707 127.518C56.8257 127.518 56.2901 126.959 56.2901 126.05V126.046H60.4398V125.582C60.4398 123.511 59.1862 122.488 57.5755 122.488C55.7824 122.488 54.62 123.761 54.62 125.642C54.62 127.574 55.7665 128.78 57.6429 128.78ZM56.2901 124.999C56.3259 124.305 56.8535 123.749 57.6033 123.749C58.3372 123.749 58.845 124.273 58.849 124.999H56.2901ZM63.2327 125.138C63.2366 124.352 63.7047 123.892 64.3871 123.892C65.0655 123.892 65.4741 124.336 65.4701 125.082V128.661H67.1601V124.781C67.1601 123.361 66.327 122.488 65.0575 122.488C64.153 122.488 63.4985 122.932 63.2247 123.642H63.1533V122.567H61.5426V128.661H63.2327V125.138ZM71.7333 122.567H70.5868V121.107H68.8968V122.567H68.0637V123.837H68.8968V127.01C68.8888 128.204 69.7021 128.796 70.9279 128.744C71.3643 128.728 71.6738 128.641 71.8443 128.585L71.5785 127.328C71.4952 127.344 71.3167 127.383 71.158 127.383C70.8208 127.383 70.5868 127.256 70.5868 126.788V123.837H71.7333V122.567Z" fill="white"/>
<path d="M118.367 133.902C120.557 133.902 122.123 132.698 122.119 131.032C122.123 129.818 121.352 128.951 119.919 128.77V128.694C121.009 128.499 121.761 127.728 121.757 126.633C121.761 125.095 120.414 123.886 118.396 123.886C116.396 123.886 114.892 125.057 114.863 126.742H116.839C116.863 126 117.544 125.519 118.386 125.519C119.219 125.519 119.776 126.024 119.772 126.757C119.776 127.523 119.124 128.042 118.186 128.042H117.277V129.556H118.186C119.291 129.556 119.981 130.108 119.976 130.894C119.981 131.67 119.315 132.203 118.372 132.203C117.463 132.203 116.782 131.727 116.744 131.013H114.668C114.702 132.717 116.225 133.902 118.367 133.902ZM127.161 133.902C129.332 133.902 130.808 132.488 130.803 130.518C130.808 128.651 129.503 127.309 127.747 127.309C126.89 127.309 126.152 127.666 125.809 128.147H125.752L126.004 125.705H130.265V124.019H124.305L123.843 129.161L125.676 129.489C125.976 129.085 126.557 128.832 127.133 128.832C128.113 128.837 128.818 129.546 128.818 130.57C128.818 131.584 128.128 132.284 127.161 132.284C126.342 132.284 125.681 131.77 125.633 131.013H123.634C123.672 132.698 125.143 133.902 127.161 133.902ZM137.577 131.941C137.582 133.112 138.329 134.107 139.724 134.107C141.105 134.107 141.876 133.112 141.871 131.941V131.427C141.876 130.246 141.124 129.261 139.724 129.261C138.349 129.261 137.582 130.256 137.577 131.427V131.941ZM132.574 126.362C132.579 127.533 133.326 128.518 134.716 128.518C136.102 128.518 136.873 127.542 136.868 126.362V125.847C136.873 124.667 136.121 123.681 134.716 123.681C133.355 123.681 132.579 124.667 132.574 125.847V126.362ZM133.04 133.769H134.283L140.986 124.019H139.743L133.04 133.769ZM138.963 131.427C138.967 130.96 139.153 130.479 139.724 130.479C140.324 130.479 140.481 130.96 140.476 131.427V131.941C140.481 132.408 140.305 132.879 139.724 132.879C139.144 132.879 138.967 132.393 138.963 131.941V131.427ZM133.969 125.847C133.974 125.395 134.15 124.9 134.716 124.9C135.316 124.9 135.478 125.381 135.473 125.847V126.362C135.478 126.828 135.297 127.299 134.716 127.299C134.154 127.299 133.974 126.828 133.969 126.362V125.847ZM117.793 144.707C117.793 142.049 116.142 140.533 113.988 140.533C111.822 140.533 110.184 142.049 110.184 144.707C110.184 147.353 111.822 148.88 113.988 148.88C116.142 148.88 117.793 147.365 117.793 144.707ZM116.051 144.707C116.051 146.428 115.234 147.361 113.988 147.361C112.738 147.361 111.925 146.428 111.925 144.707C111.925 142.985 112.738 142.053 113.988 142.053C115.234 142.053 116.051 142.985 116.051 144.707ZM122.274 142.676H121.128V141.216H119.438V142.676H118.605V143.945H119.438V147.119C119.43 148.313 120.243 148.904 121.469 148.852C121.905 148.836 122.215 148.749 122.385 148.694L122.12 147.436C122.036 147.452 121.858 147.492 121.699 147.492C121.362 147.492 121.128 147.365 121.128 146.897V143.945H122.274V142.676ZM125.196 145.246C125.2 144.461 125.68 144.001 126.37 144.001C127.057 144.001 127.461 144.441 127.457 145.191V148.769H129.147V144.889C129.151 143.461 128.31 142.596 127.041 142.596C126.117 142.596 125.498 143.033 125.22 143.751H125.149V140.644H123.506V148.769H125.196V145.246ZM133.254 148.888C134.762 148.888 135.778 148.154 136.016 147.023L134.453 146.92C134.282 147.385 133.846 147.627 133.282 147.627C132.437 147.627 131.902 147.067 131.902 146.159V146.155H136.051V145.691C136.051 143.62 134.798 142.596 133.187 142.596C131.394 142.596 130.232 143.87 130.232 145.75C130.232 147.682 131.378 148.888 133.254 148.888ZM131.902 145.107C131.937 144.413 132.465 143.858 133.215 143.858C133.949 143.858 134.457 144.381 134.46 145.107H131.902ZM137.154 148.769H138.844V145.322C138.844 144.572 139.392 144.056 140.137 144.056C140.372 144.056 140.693 144.096 140.852 144.147V142.648C140.701 142.612 140.491 142.588 140.32 142.588C139.638 142.588 139.078 142.985 138.856 143.739H138.793V142.676H137.154V148.769ZM146.795 144.413C146.645 143.29 145.74 142.596 144.201 142.596C142.642 142.596 141.614 143.318 141.618 144.492C141.614 145.405 142.189 145.996 143.38 146.234L144.435 146.444C144.966 146.551 145.208 146.746 145.216 147.051C145.208 147.412 144.816 147.67 144.225 147.67C143.622 147.67 143.221 147.412 143.118 146.916L141.456 147.004C141.614 148.17 142.606 148.888 144.221 148.888C145.8 148.888 146.93 148.083 146.934 146.881C146.93 146 146.355 145.472 145.173 145.23L144.07 145.008C143.503 144.885 143.292 144.691 143.296 144.397C143.292 144.032 143.705 143.794 144.229 143.794C144.816 143.794 145.165 144.116 145.248 144.508L146.795 144.413Z" fill="white"/>
<path d="M146.956 62.5765H145.018L142.604 64.1047V65.9327L144.837 64.5331H144.894V72.3262H146.956V62.5765ZM152.834 72.4595C155.005 72.4595 156.48 71.0456 156.476 69.0747C156.48 67.2086 155.176 65.8661 153.419 65.8661C152.562 65.8661 151.824 66.2231 151.482 66.7039H151.425L151.677 64.2618H155.938V62.5765H149.977L149.516 67.7179L151.348 68.0464C151.648 67.6418 152.229 67.3895 152.805 67.3895C153.786 67.3942 154.49 68.1035 154.49 69.1271C154.49 70.1411 153.8 70.8409 152.834 70.8409C152.015 70.8409 151.353 70.3267 151.306 69.5698H149.306C149.344 71.255 150.815 72.4595 152.834 72.4595ZM163.25 70.4981C163.255 71.6692 164.002 72.6642 165.397 72.6642C166.777 72.6642 167.549 71.6692 167.544 70.4981V69.984C167.549 68.8033 166.797 67.8179 165.397 67.8179C164.021 67.8179 163.255 68.8129 163.25 69.984V70.4981ZM158.247 64.9187C158.251 66.0898 158.999 67.0753 160.389 67.0753C161.774 67.0753 162.545 66.0993 162.541 64.9187V64.4046C162.545 63.2239 161.793 62.2385 160.389 62.2385C159.027 62.2385 158.251 63.2239 158.247 64.4046V64.9187ZM158.713 72.3262H159.956L166.658 62.5765H165.416L158.713 72.3262ZM164.635 69.984C164.64 69.5174 164.826 69.0366 165.397 69.0366C165.997 69.0366 166.154 69.5174 166.149 69.984V70.4981C166.154 70.9646 165.978 71.4359 165.397 71.4359C164.816 71.4359 164.64 70.9504 164.635 70.4981V69.984ZM159.641 64.4046C159.646 63.9523 159.822 63.4572 160.389 63.4572C160.989 63.4572 161.15 63.938 161.146 64.4046V64.9187C161.15 65.3853 160.97 65.8565 160.389 65.8565C159.827 65.8565 159.646 65.3853 159.641 64.9187V64.4046ZM122.988 87.3262H126.459C128.284 87.3262 129.256 86.3741 129.256 85.0808C129.256 83.8787 128.395 83.1527 127.471 83.1091V83.0298C128.316 82.8393 128.939 82.2403 128.939 81.2842C128.939 80.0663 128.034 79.2015 126.241 79.2015H122.988V87.3262ZM124.706 85.9218V83.7637H126.146C126.971 83.7637 127.483 84.2397 127.483 84.9102C127.483 85.5211 127.066 85.9218 126.106 85.9218H124.706ZM124.706 82.6013V80.59H126.011C126.773 80.59 127.205 80.9827 127.205 81.5698C127.205 82.2125 126.682 82.6013 125.979 82.6013H124.706ZM130.342 87.3262H132.032V81.2326H130.342V87.3262ZM131.191 80.4471C131.695 80.4471 132.108 80.0623 132.108 79.5902C132.108 79.1221 131.695 78.7373 131.191 78.7373C130.691 78.7373 130.279 79.1221 130.279 79.5902C130.279 80.0623 130.691 80.4471 131.191 80.4471ZM135.076 79.2015H133.386V87.3262H135.076V79.2015ZM138.12 79.2015H136.43V87.3262H138.12V79.2015ZM142.091 87.3262H147.581V85.9099H143.809V83.97H147.284V82.5537H143.809V80.6177H147.566V79.2015H142.091V87.3262ZM150.312 81.2326H148.566L150.312 84.2794L148.503 87.3262H150.248L151.431 85.2196L152.633 87.3262H154.358L152.545 84.2794L154.311 81.2326H152.577L151.431 83.363L150.312 81.2326ZM155.314 89.6112H157.004V86.3503H157.056C157.29 86.858 157.802 87.4254 158.786 87.4254C160.174 87.4254 161.257 86.3265 161.257 84.2873C161.257 82.1927 160.127 81.1533 158.79 81.1533C157.77 81.1533 157.282 81.7603 157.056 82.2562H156.981V81.2326H155.314V89.6112ZM156.969 84.2794C156.969 83.1924 157.429 82.4982 158.25 82.4982C159.087 82.4982 159.531 83.2241 159.531 84.2794C159.531 85.3426 159.079 86.0805 158.25 86.0805C157.437 86.0805 156.969 85.3664 156.969 84.2794ZM165.161 87.4452C166.668 87.4452 167.684 86.7113 167.922 85.5806L166.359 85.4775C166.188 85.9416 165.752 86.1836 165.189 86.1836C164.344 86.1836 163.808 85.6243 163.808 84.7158V84.7118H167.958V84.2477C167.958 82.1768 166.704 81.1533 165.093 81.1533C163.3 81.1533 162.138 82.4267 162.138 84.3072C162.138 86.2392 163.284 87.4452 165.161 87.4452ZM163.808 83.6645C163.844 82.9702 164.371 82.4148 165.121 82.4148C165.855 82.4148 166.363 82.9385 166.367 83.6645H163.808ZM170.751 83.8033C170.755 83.0179 171.223 82.5577 171.905 82.5577C172.583 82.5577 172.992 83.002 172.988 83.7478V87.3262H174.678V83.4463C174.678 82.0261 173.845 81.1533 172.575 81.1533C171.671 81.1533 171.016 81.5976 170.743 82.3077H170.671V81.2326H169.061V87.3262H170.751V83.8033ZM181.08 82.9702C180.929 81.8475 180.025 81.1533 178.486 81.1533C176.926 81.1533 175.899 81.8753 175.903 83.0496C175.899 83.962 176.474 84.5531 177.664 84.7912L178.72 85.0014C179.251 85.1085 179.493 85.3029 179.501 85.6084C179.493 85.9694 179.1 86.2273 178.509 86.2273C177.906 86.2273 177.506 85.9694 177.402 85.4735L175.74 85.5608C175.899 86.7271 176.891 87.4452 178.505 87.4452C180.084 87.4452 181.215 86.6399 181.219 85.4378C181.215 84.5571 180.64 84.0295 179.457 83.7875L178.355 83.5653C177.787 83.4423 177.577 83.2479 177.581 82.9544C177.577 82.5894 177.99 82.3514 178.513 82.3514C179.1 82.3514 179.45 82.6727 179.533 83.0655L181.08 82.9702ZM185.06 87.4452C186.568 87.4452 187.583 86.7113 187.821 85.5806L186.258 85.4775C186.088 85.9416 185.651 86.1836 185.088 86.1836C184.243 86.1836 183.707 85.6243 183.707 84.7158V84.7118H187.857V84.2477C187.857 82.1768 186.603 81.1533 184.993 81.1533C183.199 81.1533 182.037 82.4267 182.037 84.3072C182.037 86.2392 183.184 87.4452 185.06 87.4452ZM183.707 83.6645C183.743 82.9702 184.271 82.4148 185.02 82.4148C185.754 82.4148 186.262 82.9385 186.266 83.6645H183.707Z" fill="white"/>
</svg>
