<svg width="15" height="18" viewBox="0 0 15 18" fill="none" xmlns="http://www.w3.org/2000/svg">
<path d="M13.425 4.98755C13.4151 3.8945 12.9744 2.84948 12.1985 2.07947C11.4227 1.30946 10.3743 0.876653 9.28123 0.875052H3.24998C3.10018 0.873124 2.95466 0.925072 2.83995 1.02143C2.72523 1.1178 2.64894 1.25216 2.62498 1.40005L0.487484 14.8063C0.474129 14.8951 0.480056 14.9857 0.504862 15.072C0.529667 15.1582 0.572769 15.2382 0.631234 15.3063C0.689322 15.376 0.761904 15.4323 0.843933 15.4712C0.925962 15.51 1.01547 15.5305 1.10623 15.5313H3.68748L3.54998 16.4001C3.53538 16.4901 3.54067 16.5822 3.56547 16.67C3.59027 16.7578 3.63398 16.8391 3.69354 16.9082C3.7531 16.9773 3.82707 17.0325 3.91024 17.07C3.99341 17.1074 4.08377 17.1262 4.17498 17.1251H7.08123C7.23013 17.1272 7.3749 17.0761 7.48949 16.981C7.60407 16.8859 7.68093 16.753 7.70623 16.6063L8.33123 12.7876H10.3C11.5322 12.7826 12.7124 12.29 13.5826 11.4175C14.4527 10.545 14.9421 9.36355 14.9437 8.1313V7.9563C14.9431 7.37667 14.8051 6.80543 14.5411 6.2894C14.2772 5.77337 13.8947 5.32724 13.425 4.98755ZM3.78123 2.12505H9.28123C9.93695 2.12706 10.5726 2.35124 11.0846 2.76101C11.5965 3.17077 11.9544 3.74194 12.1 4.3813C11.8296 4.31789 11.5527 4.28642 11.275 4.28755H6.06248C5.91268 4.28562 5.76716 4.33757 5.65244 4.43393C5.53773 4.5303 5.46144 4.66466 5.43748 4.81255L5.06873 7.12505C5.04221 7.29081 5.08262 7.46032 5.18108 7.59628C5.27954 7.73225 5.42797 7.82353 5.59373 7.85005C5.75949 7.87657 5.929 7.83616 6.06496 7.7377C6.20093 7.63925 6.29221 7.49081 6.31873 7.32505L6.60623 5.52505H11.2875C11.5871 5.52662 11.8838 5.58385 12.1625 5.6938C12.0437 6.67221 11.5716 7.57354 10.835 8.2284C10.0985 8.88327 9.14807 9.24658 8.16248 9.25005H5.26248C5.11359 9.24789 4.96881 9.29895 4.85423 9.39406C4.73965 9.48916 4.66278 9.62206 4.63748 9.7688L3.87498 14.2813H1.83748L3.78123 2.12505ZM13.6937 8.1313C13.6921 9.03203 13.3344 9.89558 12.6987 10.5337C12.0629 11.1717 11.2007 11.5326 10.3 11.5376H7.79998C7.65109 11.5354 7.50631 11.5865 7.39173 11.6816C7.27714 11.7767 7.20028 11.9096 7.17498 12.0563L6.54998 15.8751H4.89998L5.03748 15.0063L5.78748 10.5126H8.14998C9.31677 10.5091 10.4497 10.1198 11.3721 9.40539C12.2946 8.69092 12.9548 7.6914 13.25 6.56255C13.5401 6.96927 13.6953 7.45673 13.6937 7.9563V8.1313Z" fill="#396AFF"/>
</svg>
