<svg width="325" height="254" viewBox="0 0 325 254" fill="none" xmlns="http://www.w3.org/2000/svg">
<rect width="325" height="254" rx="15" fill="white"/>
<rect x="48" y="44" width="259" height="1" fill="#F3F3F5"/>
<rect x="48" y="77" width="259" height="1" fill="#F3F3F5"/>
<rect x="48" y="110" width="259" height="1" fill="#F3F3F5"/>
<rect x="48" y="143" width="259" height="1" fill="#F3F3F5"/>
<rect x="48" y="176" width="259" height="1" fill="#F3F3F5"/>
<rect x="48" y="209" width="259" height="1" fill="#F3F3F5"/>
<path d="M22.3299 45.1193C23.9918 45.1193 25.2106 43.892 25.2106 42.2216C25.2106 40.5298 24.0344 39.2898 22.4322 39.2898C21.8441 39.2898 21.2731 39.4986 20.9151 39.7841H20.864L21.1708 37.2102H24.8185V36.2727H20.2844L19.756 40.5682L20.7447 40.6875C21.1069 40.4276 21.7248 40.2401 22.2617 40.2443C23.3739 40.2528 24.1879 41.0966 24.1879 42.2386C24.1879 43.3594 23.4038 44.1818 22.3299 44.1818C21.435 44.1818 20.7234 43.6065 20.6424 42.8182H19.6197C19.6836 44.1477 20.8299 45.1193 22.3299 45.1193ZM29.75 45.1193C31.6761 45.1193 32.7841 43.4872 32.7841 40.6364C32.7841 37.8068 31.6591 36.1534 29.75 36.1534C27.8409 36.1534 26.7159 37.8068 26.7159 40.6364C26.7159 43.4872 27.8239 45.1193 29.75 45.1193ZM29.75 44.1818C28.4801 44.1818 27.7386 42.9077 27.7386 40.6364C27.7386 38.3693 28.4886 37.0739 29.75 37.0739C31.0114 37.0739 31.7614 38.3693 31.7614 40.6364C31.7614 42.9077 31.0199 44.1818 29.75 44.1818ZM37.25 45.1193C39.1761 45.1193 40.2841 43.4872 40.2841 40.6364C40.2841 37.8068 39.1591 36.1534 37.25 36.1534C35.3409 36.1534 34.2159 37.8068 34.2159 40.6364C34.2159 43.4872 35.3239 45.1193 37.25 45.1193ZM37.25 44.1818C35.9801 44.1818 35.2386 42.9077 35.2386 40.6364C35.2386 38.3693 35.9886 37.0739 37.25 37.0739C38.5114 37.0739 39.2614 38.3693 39.2614 40.6364C39.2614 42.9077 38.5199 44.1818 37.25 44.1818Z" fill="#718EBF"/>
<path d="M19.9996 76.2102H24.1076V78H25.1133V76.2102H26.3065V75.2727H25.1133V69.2727H23.8349L19.9996 75.3409V76.2102ZM24.1076 75.2727H21.1417V75.2045L24.0394 70.6193H24.1076V75.2727ZM30.75 78.1193C32.6761 78.1193 33.7841 76.4872 33.7841 73.6364C33.7841 70.8068 32.6591 69.1534 30.75 69.1534C28.8409 69.1534 27.7159 70.8068 27.7159 73.6364C27.7159 76.4872 28.8239 78.1193 30.75 78.1193ZM30.75 77.1818C29.4801 77.1818 28.7386 75.9077 28.7386 73.6364C28.7386 71.3693 29.4886 70.0739 30.75 70.0739C32.0114 70.0739 32.7614 71.3693 32.7614 73.6364C32.7614 75.9077 32.0199 77.1818 30.75 77.1818ZM38.25 78.1193C40.1761 78.1193 41.2841 76.4872 41.2841 73.6364C41.2841 70.8068 40.1591 69.1534 38.25 69.1534C36.3409 69.1534 35.2159 70.8068 35.2159 73.6364C35.2159 76.4872 36.3239 78.1193 38.25 78.1193ZM38.25 77.1818C36.9801 77.1818 36.2386 75.9077 36.2386 73.6364C36.2386 71.3693 36.9886 70.0739 38.25 70.0739C39.5114 70.0739 40.2614 71.3693 40.2614 73.6364C40.2614 75.9077 39.5199 77.1818 38.25 77.1818Z" fill="#718EBF"/>
<path d="M23.2116 111.119C24.9034 111.119 26.1605 110.058 26.1605 108.631C26.1605 107.523 25.5043 106.717 24.4048 106.534V106.466C25.2869 106.197 25.8366 105.473 25.8366 104.489C25.8366 103.253 24.8608 102.153 23.2457 102.153C21.7372 102.153 20.4844 103.082 20.4332 104.455H21.456C21.4943 103.585 22.321 103.074 23.2287 103.074C24.1918 103.074 24.8139 103.658 24.8139 104.54C24.8139 105.46 24.0938 106.057 23.0582 106.057H22.3594V106.994H23.0582C24.3835 106.994 25.1207 107.668 25.1207 108.631C25.1207 109.555 24.3153 110.182 23.1946 110.182C22.1847 110.182 21.3835 109.662 21.3196 108.818H20.2457C20.3097 110.19 21.5199 111.119 23.2116 111.119ZM30.75 111.119C32.6761 111.119 33.7841 109.487 33.7841 106.636C33.7841 103.807 32.6591 102.153 30.75 102.153C28.8409 102.153 27.7159 103.807 27.7159 106.636C27.7159 109.487 28.8239 111.119 30.75 111.119ZM30.75 110.182C29.4801 110.182 28.7386 108.908 28.7386 106.636C28.7386 104.369 29.4886 103.074 30.75 103.074C32.0114 103.074 32.7614 104.369 32.7614 106.636C32.7614 108.908 32.0199 110.182 30.75 110.182ZM38.25 111.119C40.1761 111.119 41.2841 109.487 41.2841 106.636C41.2841 103.807 40.1591 102.153 38.25 102.153C36.3409 102.153 35.2159 103.807 35.2159 106.636C35.2159 109.487 36.3239 111.119 38.25 111.119ZM38.25 110.182C36.9801 110.182 36.2386 108.908 36.2386 106.636C36.2386 104.369 36.9886 103.074 38.25 103.074C39.5114 103.074 40.2614 104.369 40.2614 106.636C40.2614 108.908 39.5199 110.182 38.25 110.182Z" fill="#718EBF"/>
<path d="M19.6378 144H25.1435V143.062H21.0866V142.994L23.0469 140.898C24.5469 139.291 24.9901 138.541 24.9901 137.574C24.9901 136.227 23.8991 135.153 22.3651 135.153C20.8352 135.153 19.6719 136.193 19.6719 137.727H20.6776C20.6776 136.734 21.321 136.074 22.331 136.074C23.277 136.074 24.0014 136.653 24.0014 137.574C24.0014 138.379 23.5284 138.976 22.5185 140.08L19.6378 143.233V144ZM29.75 144.119C31.6761 144.119 32.7841 142.487 32.7841 139.636C32.7841 136.807 31.6591 135.153 29.75 135.153C27.8409 135.153 26.7159 136.807 26.7159 139.636C26.7159 142.487 27.8239 144.119 29.75 144.119ZM29.75 143.182C28.4801 143.182 27.7386 141.908 27.7386 139.636C27.7386 137.369 28.4886 136.074 29.75 136.074C31.0114 136.074 31.7614 137.369 31.7614 139.636C31.7614 141.908 31.0199 143.182 29.75 143.182ZM37.25 144.119C39.1761 144.119 40.2841 142.487 40.2841 139.636C40.2841 136.807 39.1591 135.153 37.25 135.153C35.3409 135.153 34.2159 136.807 34.2159 139.636C34.2159 142.487 35.3239 144.119 37.25 144.119ZM37.25 143.182C35.9801 143.182 35.2386 141.908 35.2386 139.636C35.2386 137.369 35.9886 136.074 37.25 136.074C38.5114 136.074 39.2614 137.369 39.2614 139.636C39.2614 141.908 38.5199 143.182 37.25 143.182Z" fill="#718EBF"/>
<path d="M22.3935 168.273H21.3366L19.1548 169.722V170.795L21.2855 169.381H21.3366V177H22.3935V168.273ZM27.75 177.119C29.6761 177.119 30.7841 175.487 30.7841 172.636C30.7841 169.807 29.6591 168.153 27.75 168.153C25.8409 168.153 24.7159 169.807 24.7159 172.636C24.7159 175.487 25.8239 177.119 27.75 177.119ZM27.75 176.182C26.4801 176.182 25.7386 174.908 25.7386 172.636C25.7386 170.369 26.4886 169.074 27.75 169.074C29.0114 169.074 29.7614 170.369 29.7614 172.636C29.7614 174.908 29.0199 176.182 27.75 176.182ZM35.25 177.119C37.1761 177.119 38.2841 175.487 38.2841 172.636C38.2841 169.807 37.1591 168.153 35.25 168.153C33.3409 168.153 32.2159 169.807 32.2159 172.636C32.2159 175.487 33.3239 177.119 35.25 177.119ZM35.25 176.182C33.9801 176.182 33.2386 174.908 33.2386 172.636C33.2386 170.369 33.9886 169.074 35.25 169.074C36.5114 169.074 37.2614 170.369 37.2614 172.636C37.2614 174.908 36.5199 176.182 35.25 176.182Z" fill="#718EBF"/>
<path d="M35.25 210.119C37.1761 210.119 38.2841 208.487 38.2841 205.636C38.2841 202.807 37.1591 201.153 35.25 201.153C33.3409 201.153 32.2159 202.807 32.2159 205.636C32.2159 208.487 33.3239 210.119 35.25 210.119ZM35.25 209.182C33.9801 209.182 33.2386 207.908 33.2386 205.636C33.2386 203.369 33.9886 202.074 35.25 202.074C36.5114 202.074 37.2614 203.369 37.2614 205.636C37.2614 207.908 36.5199 209.182 35.25 209.182Z" fill="#718EBF"/>
<path d="M57.9428 227.455H58.9656C58.9187 226.138 57.7042 225.153 56.0167 225.153C54.3462 225.153 53.0337 226.125 53.0337 227.591C53.0337 228.767 53.886 229.466 55.2496 229.858L56.3235 230.165C57.244 230.42 58.0621 230.744 58.0621 231.614C58.0621 232.568 57.1417 233.199 55.9315 233.199C54.8917 233.199 53.9712 232.739 53.886 231.75H52.7951C52.8974 233.182 54.0565 234.153 55.9315 234.153C57.9428 234.153 59.0849 233.045 59.0849 231.631C59.0849 229.994 57.5337 229.466 56.6303 229.227L55.744 228.989C55.0962 228.818 54.0565 228.477 54.0565 227.54C54.0565 226.705 54.8235 226.091 55.9826 226.091C57.0394 226.091 57.8406 226.594 57.9428 227.455ZM62.6122 234.153C63.7543 234.153 64.3509 233.54 64.5554 233.114H64.6065V234H65.6122V229.688C65.6122 227.608 64.027 227.369 63.1918 227.369C62.2031 227.369 61.0781 227.71 60.5668 228.903L61.5213 229.244C61.7429 228.767 62.267 228.256 63.2259 228.256C64.1506 228.256 64.6065 228.746 64.6065 229.585V229.619C64.6065 230.105 64.1122 230.062 62.919 230.216C61.7045 230.374 60.3793 230.642 60.3793 232.142C60.3793 233.42 61.3679 234.153 62.6122 234.153ZM62.7656 233.25C61.9645 233.25 61.3849 232.892 61.3849 232.193C61.3849 231.426 62.0838 231.188 62.8679 231.085C63.294 231.034 64.4361 230.915 64.6065 230.71V231.631C64.6065 232.449 63.9588 233.25 62.7656 233.25ZM70.2944 227.455H68.8967V225.886H67.891V227.455H66.9023V228.307H67.891V232.398C67.891 233.54 68.8114 234.085 69.6637 234.085C70.0387 234.085 70.2773 234.017 70.4137 233.966L70.2092 233.062C70.1239 233.08 69.9876 233.114 69.766 233.114C69.3228 233.114 68.8967 232.977 68.8967 232.125V228.307H70.2944V227.455Z" fill="#718EBF"/>
<rect x="52" y="48" width="7" height="161" rx="3.5" fill="#1814F3"/>
<rect x="64" y="128" width="7" height="81" rx="3.5" fill="#16DBCC"/>
<path d="M93.0073 227.455H94.03C93.9831 226.138 92.7686 225.153 91.0811 225.153C89.4107 225.153 88.0982 226.125 88.0982 227.591C88.0982 228.767 88.9505 229.466 90.3141 229.858L91.388 230.165C92.3084 230.42 93.1266 230.744 93.1266 231.614C93.1266 232.568 92.2061 233.199 90.9959 233.199C89.9561 233.199 89.0357 232.739 88.9505 231.75H87.8596C87.9618 233.182 89.1209 234.153 90.9959 234.153C93.0073 234.153 94.1493 233.045 94.1493 231.631C94.1493 229.994 92.5982 229.466 91.6948 229.227L90.8084 228.989C90.1607 228.818 89.1209 228.477 89.1209 227.54C89.1209 226.705 89.888 226.091 91.0471 226.091C92.1039 226.091 92.905 226.594 93.0073 227.455ZM99.8755 231.324C99.8755 232.551 98.938 233.114 98.188 233.114C97.3528 233.114 96.7562 232.5 96.7562 231.545V227.455H95.7505V231.614C95.7505 233.284 96.6369 234.085 97.8642 234.085C98.8528 234.085 99.5005 233.557 99.8074 232.892H99.8755V234H100.881V227.455H99.8755V231.324ZM103.729 230.062C103.729 228.92 104.436 228.273 105.399 228.273C106.333 228.273 106.899 228.882 106.899 229.909V234H107.905V229.841C107.905 228.17 107.014 227.369 105.689 227.369C104.7 227.369 104.087 227.812 103.78 228.477H103.695V227.455H102.723V234H103.729V230.062Z" fill="#718EBF"/>
<rect x="89" y="95" width="7" height="114" rx="3.5" fill="#1814F3"/>
<rect x="101" y="169" width="7" height="40" rx="3.5" fill="#16DBCC"/>
<path d="M126.129 225.273V234H127.118V227.369H127.203L129.93 234H130.885L133.612 227.369H133.697V234H134.686V225.273H133.425L130.459 232.517H130.356L127.39 225.273H126.129ZM139.328 234.136C141.1 234.136 142.294 232.79 142.294 230.761C142.294 228.716 141.1 227.369 139.328 227.369C137.555 227.369 136.362 228.716 136.362 230.761C136.362 232.79 137.555 234.136 139.328 234.136ZM139.328 233.233C137.981 233.233 137.367 232.074 137.367 230.761C137.367 229.449 137.981 228.273 139.328 228.273C140.674 228.273 141.288 229.449 141.288 230.761C141.288 232.074 140.674 233.233 139.328 233.233ZM144.834 230.062C144.834 228.92 145.542 228.273 146.505 228.273C147.438 228.273 148.005 228.882 148.005 229.909V234H149.01V229.841C149.01 228.17 148.12 227.369 146.795 227.369C145.806 227.369 145.192 227.812 144.885 228.477H144.8V227.455H143.829V234H144.834V230.062Z" fill="#718EBF"/>
<rect x="128" y="97" width="7" height="112" rx="3.5" fill="#1814F3"/>
<rect x="140" y="120" width="7" height="89" rx="3.5" fill="#16DBCC"/>
<path d="M166.697 226.21H169.441V234H170.498V226.21H173.242V225.273H166.697V226.21ZM177.971 231.324C177.971 232.551 177.034 233.114 176.284 233.114C175.449 233.114 174.852 232.5 174.852 231.545V227.455H173.846V231.614C173.846 233.284 174.733 234.085 175.96 234.085C176.949 234.085 177.596 233.557 177.903 232.892H177.971V234H178.977V227.455H177.971V231.324ZM183.563 234.136C184.893 234.136 185.864 233.472 186.171 232.483L185.2 232.21C184.944 232.892 184.352 233.233 183.563 233.233C182.383 233.233 181.569 232.47 181.522 231.068H186.273V230.642C186.273 228.205 184.825 227.369 183.461 227.369C181.688 227.369 180.512 228.767 180.512 230.778C180.512 232.79 181.671 234.136 183.563 234.136ZM181.522 230.199C181.59 229.18 182.31 228.273 183.461 228.273C184.552 228.273 185.251 229.091 185.251 230.199H181.522Z" fill="#718EBF"/>
<rect x="167" y="48" width="7" height="161" rx="3.5" fill="#1814F3"/>
<rect x="179" y="83" width="7" height="126" rx="3.5" fill="#16DBCC"/>
<path d="M206.033 234H207.124L209.05 227.045H209.118L211.044 234H212.135L214.521 225.273H213.447L211.624 232.381H211.538L209.68 225.273H208.487L206.629 232.381H206.544L204.72 225.273H203.646L206.033 234ZM217.837 234.136C219.166 234.136 220.138 233.472 220.445 232.483L219.473 232.21C219.217 232.892 218.625 233.233 217.837 233.233C216.656 233.233 215.842 232.47 215.795 231.068H220.547V230.642C220.547 228.205 219.098 227.369 217.734 227.369C215.962 227.369 214.786 228.767 214.786 230.778C214.786 232.79 215.945 234.136 217.837 234.136ZM215.795 230.199C215.864 229.18 216.584 228.273 217.734 228.273C218.825 228.273 219.524 229.091 219.524 230.199H215.795ZM224.548 234.136C225.81 234.136 226.236 233.352 226.457 232.994H226.577V234H227.548V225.273H226.543V228.494H226.457C226.236 228.153 225.844 227.369 224.565 227.369C222.912 227.369 221.77 228.682 221.77 230.744C221.77 232.824 222.912 234.136 224.548 234.136ZM224.685 233.233C223.423 233.233 222.776 232.125 222.776 230.727C222.776 229.347 223.406 228.273 224.685 228.273C225.912 228.273 226.56 229.261 226.56 230.727C226.56 232.21 225.895 233.233 224.685 233.233Z" fill="#718EBF"/>
<rect x="207" y="157" width="7" height="52" rx="3.5" fill="#1814F3"/>
<rect x="219" y="132" width="7" height="77" rx="3.5" fill="#16DBCC"/>
<path d="M245.699 226.21H248.443V234H249.5V226.21H252.244V225.273H245.699V226.21ZM254.744 230.062C254.744 228.92 255.473 228.273 256.466 228.273C257.412 228.273 257.983 228.869 257.983 229.909V234H258.989V229.841C258.989 228.158 258.094 227.369 256.756 227.369C255.725 227.369 255.137 227.8 254.83 228.477H254.744V225.273H253.739V234H254.744V230.062ZM264.954 231.324C264.954 232.551 264.016 233.114 263.266 233.114C262.431 233.114 261.834 232.5 261.834 231.545V227.455H260.829V231.614C260.829 233.284 261.715 234.085 262.942 234.085C263.931 234.085 264.579 233.557 264.885 232.892H264.954V234H265.959V227.455H264.954V231.324Z" fill="#718EBF"/>
<rect x="247" y="74" width="7" height="135" rx="3.5" fill="#1814F3"/>
<rect x="259" y="125" width="7" height="84" rx="3.5" fill="#16DBCC"/>
<path d="M286.414 234H287.471V230.097H291.255V229.159H287.471V226.21H291.647V225.273H286.414V234ZM293.251 234H294.256V229.858C294.256 228.972 294.955 228.324 295.91 228.324C296.178 228.324 296.455 228.375 296.523 228.392V227.369C296.408 227.361 296.144 227.352 295.995 227.352C295.211 227.352 294.529 227.795 294.29 228.443H294.222V227.455H293.251V234ZM297.715 234H298.721V227.455H297.715V234ZM298.227 226.364C298.619 226.364 298.943 226.057 298.943 225.682C298.943 225.307 298.619 225 298.227 225C297.835 225 297.511 225.307 297.511 225.682C297.511 226.057 297.835 226.364 298.227 226.364Z" fill="#718EBF"/>
<rect x="283" y="78" width="7" height="131" rx="3.5" fill="#1814F3"/>
<rect x="295" y="101" width="7" height="108" rx="3.5" fill="#16DBCC"/>
<circle cx="146" cy="25" r="6" fill="#16DBCC"/>
<path d="M165.75 29C168.409 29 169.909 27.3466 169.909 24.6193C169.909 21.9091 168.409 20.2727 165.869 20.2727H163.057V29H165.75ZM164.114 28.0625V21.2102H165.801C167.847 21.2102 168.886 22.5057 168.886 24.6193C168.886 26.75 167.847 28.0625 165.682 28.0625H164.114ZM171.545 29H172.551V22.4545H171.545V29ZM172.057 21.3636C172.449 21.3636 172.773 21.0568 172.773 20.6818C172.773 20.3068 172.449 20 172.057 20C171.665 20 171.341 20.3068 171.341 20.6818C171.341 21.0568 171.665 21.3636 172.057 21.3636ZM174.393 31.4545H175.399V27.9943H175.484C175.706 28.3523 176.132 29.1364 177.393 29.1364C179.029 29.1364 180.172 27.8239 180.172 25.7443C180.172 23.6818 179.029 22.3693 177.376 22.3693C176.098 22.3693 175.706 23.1534 175.484 23.4943H175.365V22.4545H174.393V31.4545ZM175.382 25.7273C175.382 24.2614 176.029 23.2727 177.257 23.2727C178.535 23.2727 179.166 24.3466 179.166 25.7273C179.166 27.125 178.518 28.233 177.257 28.233C176.047 28.233 175.382 27.2102 175.382 25.7273ZM184.365 29.1364C186.137 29.1364 187.331 27.7898 187.331 25.7614C187.331 23.7159 186.137 22.3693 184.365 22.3693C182.592 22.3693 181.399 23.7159 181.399 25.7614C181.399 27.7898 182.592 29.1364 184.365 29.1364ZM184.365 28.233C183.018 28.233 182.404 27.0739 182.404 25.7614C182.404 24.4489 183.018 23.2727 184.365 23.2727C185.711 23.2727 186.325 24.4489 186.325 25.7614C186.325 27.0739 185.711 28.233 184.365 28.233ZM193.502 23.9205C193.187 22.9915 192.479 22.3693 191.184 22.3693C189.803 22.3693 188.781 23.1534 188.781 24.2614C188.781 25.1648 189.317 25.7699 190.519 26.0511L191.61 26.3068C192.271 26.4602 192.582 26.7756 192.582 27.2273C192.582 27.7898 191.985 28.25 191.048 28.25C190.225 28.25 189.71 27.8963 189.531 27.1932L188.576 27.4318C188.81 28.544 189.727 29.1364 191.065 29.1364C192.586 29.1364 193.621 28.3054 193.621 27.1761C193.621 26.2642 193.05 25.6889 191.883 25.4034L190.911 25.1648C190.136 24.973 189.786 24.7131 189.786 24.2102C189.786 23.6477 190.383 23.2386 191.184 23.2386C192.062 23.2386 192.424 23.7244 192.599 24.1761L193.502 23.9205ZM195.135 29H196.141V22.4545H195.135V29ZM195.647 21.3636C196.039 21.3636 196.363 21.0568 196.363 20.6818C196.363 20.3068 196.039 20 195.647 20C195.255 20 194.931 20.3068 194.931 20.6818C194.931 21.0568 195.255 21.3636 195.647 21.3636ZM200.83 22.4545H199.432V20.8864H198.426V22.4545H197.438V23.3068H198.426V27.3977C198.426 28.5398 199.347 29.0852 200.199 29.0852C200.574 29.0852 200.812 29.017 200.949 28.9659L200.744 28.0625C200.659 28.0795 200.523 28.1136 200.301 28.1136C199.858 28.1136 199.432 27.9773 199.432 27.125V23.3068H200.83V22.4545Z" fill="#718EBF"/>
<circle cx="236" cy="25" r="6" fill="#FF82AC"/>
<path d="M254.642 29H255.733L257.659 22.0455H257.727L259.653 29H260.744L263.131 20.2727H262.057L260.233 27.3807H260.148L258.29 20.2727H257.097L255.239 27.3807H255.153L253.33 20.2727H252.256L254.642 29ZM264.311 29H265.317V22.4545H264.311V29ZM264.822 21.3636C265.214 21.3636 265.538 21.0568 265.538 20.6818C265.538 20.3068 265.214 20 264.822 20C264.43 20 264.107 20.3068 264.107 20.6818C264.107 21.0568 264.43 21.3636 264.822 21.3636ZM270.005 22.4545H268.608V20.8864H267.602V22.4545H266.613V23.3068H267.602V27.3977C267.602 28.5398 268.522 29.0852 269.375 29.0852C269.75 29.0852 269.988 29.017 270.125 28.9659L269.92 28.0625C269.835 28.0795 269.699 28.1136 269.477 28.1136C269.034 28.1136 268.608 27.9773 268.608 27.125V23.3068H270.005V22.4545ZM272.664 25.0625C272.664 23.9205 273.393 23.2727 274.386 23.2727C275.332 23.2727 275.903 23.8693 275.903 24.9091V29H276.909V24.8409C276.909 23.1577 276.014 22.3693 274.676 22.3693C273.645 22.3693 273.056 22.7997 272.75 23.4773H272.664V20.2727H271.659V29H272.664V25.0625ZM281.22 29.1364C282.482 29.1364 282.908 28.3523 283.129 27.9943H283.249V29H284.22V20.2727H283.214V23.4943H283.129C282.908 23.1534 282.516 22.3693 281.237 22.3693C279.584 22.3693 278.442 23.6818 278.442 25.7443C278.442 27.8239 279.584 29.1364 281.22 29.1364ZM281.357 28.233C280.095 28.233 279.447 27.125 279.447 25.7273C279.447 24.3466 280.078 23.2727 281.357 23.2727C282.584 23.2727 283.232 24.2614 283.232 25.7273C283.232 27.2102 282.567 28.233 281.357 28.233ZM286.202 29H287.207V24.858C287.207 23.9716 287.906 23.3239 288.861 23.3239C289.129 23.3239 289.406 23.375 289.474 23.392V22.3693C289.359 22.3608 289.095 22.3523 288.946 22.3523C288.162 22.3523 287.48 22.7955 287.241 23.4432H287.173V22.4545H286.202V29ZM292.593 29.1534C293.735 29.1534 294.331 28.5398 294.536 28.1136H294.587V29H295.593V24.6875C295.593 22.608 294.007 22.3693 293.172 22.3693C292.184 22.3693 291.059 22.7102 290.547 23.9034L291.502 24.2443C291.723 23.767 292.248 23.2557 293.206 23.2557C294.131 23.2557 294.587 23.7457 294.587 24.5852V24.6193C294.587 25.1051 294.093 25.0625 292.9 25.2159C291.685 25.3736 290.36 25.642 290.36 27.142C290.36 28.4205 291.348 29.1534 292.593 29.1534ZM292.746 28.25C291.945 28.25 291.365 27.892 291.365 27.1932C291.365 26.4261 292.064 26.1875 292.848 26.0852C293.275 26.0341 294.417 25.9148 294.587 25.7102V26.6307C294.587 27.4489 293.939 28.25 292.746 28.25ZM298.911 29H299.9L301.332 23.9716H301.434L302.866 29H303.854L305.849 22.4545H304.792L303.377 27.4489H303.309L301.928 22.4545H300.854L299.457 27.4659H299.388L297.974 22.4545H296.917L298.911 29Z" fill="#718EBF"/>
</svg>
